<?xml version="1.0" standalone="no"?>
<!DOCTYPE svg PUBLIC "-//W3C//DTD SVG 20010904//EN"
 "http://www.w3.org/TR/2001/REC-SVG-20010904/DTD/svg10.dtd">
<svg version="1.0" xmlns="http://www.w3.org/2000/svg"
 width="512.000000pt" height="512.000000pt" viewBox="0 0 512.000000 512.000000"
 preserveAspectRatio="xMidYMid meet">
<metadata>
Created by potrace 1.14, written by Peter Selinger 2001-2017
</metadata>
<g transform="translate(0.000000,512.000000) scale(0.100000,-0.100000)"
fill="#000000" stroke="none">
<path d="M76 4786 c-22 -13 -47 -39 -57 -57 -17 -32 -18 -132 -19 -2167 0
-2075 1 -2134 19 -2170 22 -43 84 -82 130 -82 51 0 108 35 131 80 16 31 20 59
20 130 l0 90 300 0 300 0 0 -90 c0 -69 4 -100 19 -128 22 -43 84 -82 130 -82
51 0 108 35 131 80 20 39 20 54 20 2170 0 2116 0 2131 -20 2170 -23 45 -80 80
-131 80 -46 0 -108 -39 -130 -82 -15 -28 -19 -59 -19 -128 l0 -90 -300 0 -300
0 0 90 c0 112 -20 159 -80 190 -52 26 -96 25 -144 -4z m824 -876 l0 -300 -300
0 -300 0 0 300 0 300 300 0 300 0 0 -300z m0 -900 l0 -300 -300 0 -300 0 0
300 0 300 300 0 300 0 0 -300z m0 -900 l0 -300 -300 0 -300 0 0 300 0 300 300
0 300 0 0 -300z m0 -900 l0 -300 -300 0 -300 0 0 300 0 300 300 0 300 0 0
-300z"/>
<path d="M3996 4786 c-22 -13 -47 -39 -57 -57 -17 -32 -18 -132 -19 -2167 0
-2075 1 -2134 19 -2170 22 -43 84 -82 130 -82 51 0 108 35 131 80 16 31 20 59
20 130 l0 90 300 0 300 0 0 -90 c0 -69 4 -100 19 -128 22 -43 84 -82 130 -82
51 0 108 35 131 80 20 39 20 54 20 2170 0 2116 0 2131 -20 2170 -23 45 -80 80
-131 80 -46 0 -108 -39 -130 -82 -15 -28 -19 -59 -19 -128 l0 -90 -300 0 -300
0 0 90 c0 112 -20 159 -80 190 -52 26 -96 25 -144 -4z m824 -876 l0 -300 -300
0 -300 0 0 300 0 300 300 0 300 0 0 -300z m0 -900 l0 -300 -300 0 -300 0 0
300 0 300 300 0 300 0 0 -300z m0 -900 l0 -300 -300 0 -300 0 0 300 0 300 300
0 300 0 0 -300z m0 -900 l0 -300 -300 0 -300 0 0 300 0 300 300 0 300 0 0
-300z"/>
<path d="M2192 3293 c-18 -9 -43 -30 -55 -47 l-22 -31 -3 -643 c-2 -580 -1
-646 14 -678 36 -76 129 -104 206 -64 75 39 922 606 948 634 22 24 25 37 25
96 0 59 -3 72 -25 96 -25 27 -868 592 -945 633 -47 25 -98 27 -143 4z"/>
</g>
</svg>
